:SAMPLES-PER-SECOND 30
:FULLY-SPECIFIED
:DEGREES
242
root  46.0048 38.0661 1.16974 -160.664 -81.5017 160.781
RightUpLeg  -29.7254 -16.5 -8.50594
RightLeg  54.6799 -3.00727 -4.91537
RightFoot  -4.03413 -0.344556 4.97198
RightToes  2.32829e-010 0 -3.6325e-017
Spine  36.975 -1.49897 3.72633
Spine1  0.0516642 0.46026 -4.01102
HEad  -35.8092 5.90829 -7.24074
LeftShoulder1  8.86382 -15.8961 -39.4611
LeftArm  -10.8515 -3.47397 -12.5415
LeftForeArm  49.2336 -78.3446 -72.8528
LeftHand  -0.244104 0.0205437 5.32207
RightShoulder  5.32713 11.0988 30.5206
RightArm  -9.49493 3.11101 14.9697
RightForeArm  20.7736 76.9646 65.7309
RightHand  -0.0104747 -7.26592 -1.69236
LeftUpLeg  -28.5857 26.5564 -9.19625
LeftLeg  24.6933 2.62188 1.65553
LeftFoot  0.442093 -0.83181 8.02054
LeftToes  1.42787e-010 7.94111e-011 2.6399e-011
243
root  46.0004 38.0333 1.1427 -163.058 -82.3147 164.854
RightUpLeg  -32.2442 -15.2124 -7.02453
RightLeg  46.1556 -4.1116 -4.90975
RightFoot  -5.22651 -0.419508 7.14869
RightToes  2.32829e-010 0 -3.6325e-017
Spine  38.6958 -1.66761 4.27066
Spine1  -0.472577 0.474379 -3.80414
HEad  -38.6484 5.79989 -7.35661
LeftShoulder1  9.26873 -16.3438 -40.4159
LeftArm  -10.8689 -5.88845 -13.176
LeftForeArm  32.8753 -76.6105 -55.7021
LeftHand  -0.244104 0.0205437 5.32207
RightShoulder  5.44874 11.3033 30.8409
RightArm  -8.86163 4.91567 14.8963
RightForeArm  9.42593 75.3684 53.9861
RightHand  -0.0210013 -5.76884 -2.63044
LeftUpLeg  -30.8882 26.485 -9.39457
LeftLeg  25.2034 1.92435 1.32833
LeftFoot  0.293987 -0.817497 7.99175
LeftToes  1.42787e-010 7.94111e-011 2.6399e-011
244
root  45.9781 37.9172 1.04174 -165.065 -82.9778 168.811
RightUpLeg  -34.238 -13.4263 -5.78915
RightLeg  36.429 -3.07153 -2.77848
RightFoot  -4.7111 -0.560387 9.02683
RightToes  2.32829e-010 0 -3.6325e-017
Spine  40.3118 -1.81791 4.49718
Spine1  -1.45188 0.446188 -3.69938
HEad  -40.9599 5.85415 -7.2383
LeftShoulder1  9.62794 -16.7174 -41.2742
LeftArm  -11.2333 -7.97851 -13.3644
LeftForeArm  20.958 -74.0281 -43.3685
LeftHand  -0.244104 0.0205437 5.32207
RightShoulder  5.63827 11.5763 31.4361
RightArm  -8.22262 6.82604 14.9698
RightForeArm  -0.438983 73.0303 43.8522
RightHand  -0.0561106 -4.22683 -3.62514
LeftUpLeg  -33.8686 26.4362 -9.76592
LeftLeg  26.4107 1.2827 1.03642
LeftFoot  -0.117888 -0.7603 7.73109
LeftToes  1.42787e-010 7.94111e-011 2.6399e-011
245
root  45.9376 37.6792 0.840224 -165.429 -83.8831 171.052
RightUpLeg  -36.0497 -11.7074 -4.92775
RightLeg  28.9799 1.13486 0.474962
RightFoot  -2.49335 -0.825934 10.4529
RightToes  2.32829e-010 0 -3.6325e-017
Spine  41.8113 -1.97487 4.28386
Spine1  -2.4874 0.234625 -3.35332
HEad  -42.9782 5.73746 -6.97118
LeftShoulder1  9.85874 -17.0439 -41.615
LeftArm  -11.2459 -9.87747 -13.1721
LeftForeArm  13.5357 -71.3009 -35.5142
LeftHand  -0.244104 0.0205437 5.32207
RightShoulder  5.85272 11.904 32.0356
RightArm  -7.83004 8.52362 15.2555
RightForeArm  -7.02834 70.4732 36.6007
RightHand  -0.0913208 -3.11831 -3.94824
LeftUpLeg  -37.2797 26.043 -10.1666
LeftLeg  28.6479 0.711526 0.771131
LeftFoot  -0.83529 -0.677322 7.4106
LeftToes  1.42787e-010 7.94111e-011 2.6399e-011
246
root  45.9253 37.3868 0.566269 -167.057 -85.1577 174.255
RightUpLeg  -38.3663 -10.4283 -3.90302
RightLeg  26.8017 4.34298 2.18506
RightFoot  0.636931 -0.900377 8.69493
RightToes  2.32829e-010 0 -3.6325e-017
Spine  43.3647 -2.14135 4.23359
Spine1  -3.27351 -0.085497 -2.55551
HEad  -44.896 5.34534 -6.72875
LeftShoulder1  9.97036 -17.3339 -41.4884
LeftArm  -10.8628 -11.9353 -12.8434
LeftForeArm  8.87226 -68.6818 -30.2562
LeftHand  -0.244104 0.0205437 5.32207
RightShoulder  6.01011 12.1588 32.4225
RightArm  -7.91004 9.72687 15.7033
RightForeArm  -10.5757 68.4203 32.3306
RightHand  -0.0978591 -2.6771 -3.65066
LeftUpLeg  -40.563 25.3329 -10.2023
LeftLeg  31.2428 0.153489 0.457267
LeftFoot  -1.55084 -0.605303 7.16799
LeftToes  1.42787e-010 7.94111e-011 2.6399e-011
